<?xml version="1.0" encoding="UTF-8" standalone="no"?>
<svg
   xmlns:dc="http://purl.org/dc/elements/1.1/"
   xmlns:cc="http://creativecommons.org/ns#"
   xmlns:rdf="http://www.w3.org/1999/02/22-rdf-syntax-ns#"
   xmlns:svg="http://www.w3.org/2000/svg"
   xmlns="http://www.w3.org/2000/svg"
   xmlns:sodipodi="http://sodipodi.sourceforge.net/DTD/sodipodi-0.dtd"
   xmlns:inkscape="http://www.inkscape.org/namespaces/inkscape"
   version="1.1"
   id="Mode_Isolation"
   x="0px"
   y="0px"
   viewBox="0 0 600 600"
   xml:space="preserve"
   sodipodi:docname="Logo Ville Valence.svg"
   width="600"
   height="600"
   inkscape:version="1.0.1 (c497b03c, 2020-09-10)"><metadata
   id="metadata878"><rdf:RDF><cc:Work
       rdf:about=""><dc:format>image/svg+xml</dc:format><dc:type
         rdf:resource="http://purl.org/dc/dcmitype/StillImage" /></cc:Work></rdf:RDF></metadata><defs
   id="defs876" /><sodipodi:namedview
   pagecolor="#ffffff"
   bordercolor="#666666"
   borderopacity="1"
   objecttolerance="10"
   gridtolerance="10"
   guidetolerance="10"
   inkscape:pageopacity="0"
   inkscape:pageshadow="2"
   inkscape:window-width="1920"
   inkscape:window-height="1080"
   id="namedview874"
   showgrid="false"
   inkscape:zoom="1.1524922"
   inkscape:cx="160"
   inkscape:cy="159.5"
   inkscape:window-x="0"
   inkscape:window-y="0"
   inkscape:window-maximized="0"
   inkscape:current-layer="Mode_Isolation" />
<style
   type="text/css"
   id="style833">
	.st0{fill:#7C2582;}
	.st1{fill:#FFFFFF;}
</style>
<g
   id="g971"><path
     class="st0"
     d="M 300,591.10039 C 139.44828,591.10039 8.896552,460.50362 8.896552,299.89651 8.896552,139.2894 139.44828,8.692653 300,8.692653 c 160.55172,0 291.10345,130.596747 291.10345,291.203857 0,160.60711 -130.55173,291.20388 -291.10345,291.20388"
     id="path837"
     style="stroke-width:2.06932" /><path
     class="st1"
     d="m 300,17.592273 c 155.7931,0 282.2069,126.457407 282.2069,282.304237 0,155.84686 -126.4138,282.30424 -282.2069,282.30424 -155.7931,0 -282.413793,-126.45738 -282.413793,-282.30424 C 17.586207,144.04968 144,17.592273 300,17.592273 M 300,0 C 219.93103,0 144.62069,31.25216 87.93103,87.96137 31.24138,144.46361 0,219.79992 0,299.89651 0,379.9931 31.24138,455.32943 87.93103,512.03863 144.62069,568.74784 219.93103,600 300,600 380.06897,600 455.37931,568.74784 512.06897,512.03863 568.75862,455.32943 600,379.9931 600,299.89651 600,219.79992 568.75862,144.46361 512.06897,87.75441 455.37931,31.04519 380.06897,0 300,0"
     id="path839"
     style="stroke-width:2.06932" /></g><g
   id="g967"
   transform="matrix(2.0689655,0,0,2.0696791,-146.89655,-147.98206)"><g
     id="g949"><polygon
       class="st1"
       points="207.6,171.9 204.9,156.6 203.6,148.6 206.8,148.6 209.9,169.6 213.1,148.6 216.2,148.6 215,156.7 212.3,171.9 "
       id="polygon853" /><rect
       x="220.10001"
       y="148.60001"
       class="st1"
       width="3.0999999"
       height="23.299999"
       id="rect855" /><polygon
       class="st1"
       points="237.8,169.3 237.8,171.9 228.3,171.9 228.3,148.6 231.5,148.6 231.5,169.3 "
       id="polygon857" /><polygon
       class="st1"
       points="251,169.3 251,171.9 241.6,171.9 241.6,148.6 244.7,148.6 244.7,169.3 "
       id="polygon859" /><polygon
       class="st1"
       points="264.3,171.9 254.8,171.9 254.8,148.6 264.3,148.6 264.3,151.2 258,151.2 258,158.9 263.4,158.9 263.4,161.5 258,161.5 258,169.3 264.3,169.3 "
       id="polygon861" /><path
       class="st1"
       d="m 276.9,148.6 h 5.4 c 0.1,0 0.2,0 0.3,0 3.2,0 4.8,1.5 4.8,4.6 v 14 c 0,3.1 -1.6,4.7 -4.8,4.7 h -0.3 -5.4 z m 3.2,2.6 v 18.1 h 2.2 c 1.4,0 2.1,-0.7 2.1,-2.1 v -14 c 0,-1.4 -0.7,-2.1 -2.1,-2.1 h -2.2 z"
       id="path863" /><polygon
       class="st1"
       points="301.7,171.9 292.3,171.9 292.3,148.6 301.7,148.6 301.7,151.2 295.4,151.2 295.4,158.9 300.8,158.9 300.8,161.5 295.4,161.5 295.4,169.3 301.7,169.3 "
       id="polygon865" /></g><g
     id="g940"><polygon
       class="st1"
       points="106.9,251.1 99.6,204.6 96.3,179.9 104.8,179.9 113.2,243.9 121.7,179.9 130.1,179.9 126.8,204.7 119.5,251.1 "
       id="polygon841" /><polygon
       class="st1"
       points="197,242.9 197,251.1 171.8,251.1 171.8,179.9 180.2,179.9 180.2,242.9 "
       id="polygon843" /><polygon
       class="st1"
       points="228.6,251.1 203.4,251.1 203.4,179.9 228.6,179.9 228.6,188.1 211.7,188.1 211.7,211.4 226.3,211.4 226.3,219.6 211.7,219.6 211.7,242.9 228.6,242.9 "
       id="polygon845" /><polygon
       class="st1"
       points="236.5,179.9 245,179.9 257.1,231 257.1,180.1 264.6,179.9 264.6,251.1 256.1,251.1 244.4,201.2 244.4,251.1 236.5,251.1 "
       id="polygon847" /><path
       class="st1"
       d="m 301.8,237.9 c 0,9.5 -4.7,14.3 -14.1,14.3 -9.4,0 -14.1,-4.8 -14.1,-14.3 V 193 c 0,-9.5 4.7,-14.3 14.1,-14.3 9.4,0 14.1,4.8 14.1,14.3 v 8.8 l -8.3,4.8 V 193 c 0,-4 -1.9,-6.1 -5.7,-6.1 h -0.1 c -3.8,0 -5.7,2 -5.7,6.1 v 44.9 c 0,4.1 1.9,6.1 5.7,6.1 3.8,0 5.8,-2 5.8,-6.1 v -13.5 l 8.3,4.8 z"
       id="path849" /><polygon
       class="st1"
       points="335.6,251.1 310.4,251.1 310.4,179.9 335.6,179.9 335.6,188.1 318.8,188.1 318.8,211.4 333.3,211.4 333.3,219.6 318.8,219.6 318.8,242.9 335.6,242.9 "
       id="polygon851" /><path
       class="st1"
       d="m 165.5,251.1 -3.3,-24.8 -7.3,-46.4 h -12.6 l -7.3,46.5 -3.3,24.7 h 8.4 v 0 l 15.7,-9 1.2,9 z m -22.3,-23.8 5.3,-40.2 5.3,40.2 0.9,7.2 -13.5,7.7 0.9,-6.7 z"
       id="path867" /></g></g>
</svg>
